<svg width="26" height="26" viewBox="0 0 26 26" fill="none" xmlns="http://www.w3.org/2000/svg">
<path d="M24.9133 23.5867L19.0457 17.7203C20.7464 15.6786 21.5944 13.0598 21.4134 10.4087C21.2324 7.75761 20.0363 5.27837 18.0739 3.48671C16.1116 1.69505 13.534 0.728915 10.8774 0.789289C8.22085 0.849664 5.68982 1.9319 3.81086 3.81086C1.9319 5.68982 0.849664 8.22085 0.789289 10.8774C0.728915 13.534 1.69505 16.1116 3.48671 18.0739C5.27837 20.0363 7.75761 21.2324 10.4087 21.4134C13.0598 21.5944 15.6786 20.7464 17.7203 19.0457L23.5867 24.9133C23.6738 25.0004 23.7773 25.0695 23.8911 25.1166C24.0049 25.1638 24.1268 25.188 24.25 25.188C24.3732 25.188 24.4952 25.1638 24.609 25.1166C24.7228 25.0695 24.8262 25.0004 24.9133 24.9133C25.0004 24.8262 25.0695 24.7228 25.1166 24.609C25.1638 24.4952 25.188 24.3732 25.188 24.25C25.188 24.1268 25.1638 24.0049 25.1166 23.8911C25.0695 23.7773 25.0004 23.6738 24.9133 23.5867ZM2.68752 11.125C2.68752 9.45624 3.18237 7.82494 4.1095 6.4374C5.03662 5.04986 6.35438 3.9684 7.89613 3.32979C9.43788 2.69118 11.1344 2.52408 12.7711 2.84965C14.4078 3.17521 15.9112 3.9788 17.0912 5.15881C18.2712 6.33882 19.0748 7.84223 19.4004 9.47895C19.726 11.1157 19.5589 12.8122 18.9203 14.3539C18.2816 15.8957 17.2002 17.2134 15.8126 18.1405C14.4251 19.0677 12.7938 19.5625 11.125 19.5625C8.88802 19.56 6.74335 18.6703 5.16155 17.0885C3.57975 15.5067 2.69 13.362 2.68752 11.125Z" fill="#F77137"/>
</svg>
