<svg width="40" height="40" viewBox="0 0 40 40" fill="none" xmlns="http://www.w3.org/2000/svg">
<g clip-path="url(#clip0_578_702)">
<path d="M20 36.6666C10.795 36.6666 3.33331 29.2049 3.33331 19.9999C3.33331 10.7949 10.795 3.33325 20 3.33325C29.205 3.33325 36.6666 10.7949 36.6666 19.9999C36.6666 29.2049 29.205 36.6666 20 36.6666ZM11.6883 30.4266C14.0476 32.3128 16.9794 33.3381 20 33.3333C23.2833 33.3333 26.2883 32.1466 28.6116 30.1799C27.5262 29.0662 26.2284 28.1814 24.795 27.5779C23.3617 26.9745 21.8219 26.6646 20.2666 26.6666C18.6543 26.6647 17.0592 26.998 15.5824 27.6453C14.1057 28.2925 12.7796 29.2397 11.6883 30.4266V30.4266ZM9.35998 28.0333C10.7607 26.5467 12.4511 25.3628 14.3269 24.5544C16.2027 23.7461 18.2241 23.3305 20.2666 23.3333C22.2361 23.3307 24.1866 23.7172 26.0062 24.4706C27.8259 25.2239 29.4787 26.3293 30.87 27.7233C32.2968 25.7151 33.1394 23.351 33.3043 20.8931C33.4691 18.4352 32.9499 15.9797 31.8041 13.799C30.6584 11.6183 28.9308 9.79762 26.8133 8.53899C24.6957 7.28036 22.2708 6.63298 19.8077 6.66867C17.3445 6.70436 14.9394 7.42173 12.8592 8.74118C10.7789 10.0606 9.10491 11.9306 8.0228 14.1436C6.94069 16.3566 6.4928 18.8261 6.72884 21.2782C6.96488 23.7302 7.8756 26.069 9.35998 28.0349V28.0333ZM20 21.6666C18.2319 21.6666 16.5362 20.9642 15.2859 19.714C14.0357 18.4637 13.3333 16.768 13.3333 14.9999C13.3333 13.2318 14.0357 11.5361 15.2859 10.2859C16.5362 9.03563 18.2319 8.33325 20 8.33325C21.7681 8.33325 23.4638 9.03563 24.714 10.2859C25.9643 11.5361 26.6666 13.2318 26.6666 14.9999C26.6666 16.768 25.9643 18.4637 24.714 19.714C23.4638 20.9642 21.7681 21.6666 20 21.6666ZM20 18.3333C20.884 18.3333 21.7319 17.9821 22.357 17.3569C22.9821 16.7318 23.3333 15.884 23.3333 14.9999C23.3333 14.1159 22.9821 13.268 22.357 12.6429C21.7319 12.0178 20.884 11.6666 20 11.6666C19.1159 11.6666 18.2681 12.0178 17.643 12.6429C17.0178 13.268 16.6666 14.1159 16.6666 14.9999C16.6666 15.884 17.0178 16.7318 17.643 17.3569C18.2681 17.9821 19.1159 18.3333 20 18.3333Z" fill="#454545"/>
</g>
<defs>
<clipPath id="clip0_578_702">
<rect width="40" height="40" fill="white"/>
</clipPath>
</defs>
</svg>
