<svg width="40" height="40" viewBox="0 0 40 40" fill="none" xmlns="http://www.w3.org/2000/svg">
<g clip-path="url(#clip0_247_684)">
<path d="M3.3335 6.655C3.33655 6.2173 3.51166 5.79836 3.82102 5.4887C4.13037 5.17903 4.54913 5.00349 4.98683 5H35.0135C35.9268 5 36.6668 5.74167 36.6668 6.655V33.345C36.6638 33.7827 36.4887 34.2016 36.1793 34.5113C35.87 34.821 35.4512 34.9965 35.0135 35H4.98683C4.54819 34.9996 4.12766 34.825 3.81765 34.5147C3.50763 34.2043 3.3335 33.7836 3.3335 33.345V6.655ZM13.3335 8.33333V31.6667H26.6668V8.33333H13.3335ZM6.66683 8.33333V11.6667H10.0002V8.33333H6.66683ZM30.0002 8.33333V11.6667H33.3335V8.33333H30.0002ZM6.66683 15V18.3333H10.0002V15H6.66683ZM30.0002 15V18.3333H33.3335V15H30.0002ZM6.66683 21.6667V25H10.0002V21.6667H6.66683ZM30.0002 21.6667V25H33.3335V21.6667H30.0002ZM6.66683 28.3333V31.6667H10.0002V28.3333H6.66683ZM30.0002 28.3333V31.6667H33.3335V28.3333H30.0002Z" fill="#F77137"/>
</g>
<defs>
<clipPath id="clip0_247_684">
<rect width="40" height="40" fill="white"/>
</clipPath>
</defs>
</svg>
