<svg width="200" height="200" viewBox="0 0 200 200" fill="none" xmlns="http://www.w3.org/2000/svg">
<rect width="200" height="200" rx="16" fill="#F77137"/>
<path d="M20.4398 117V75.6H32.5598L43.1198 98.16L53.6798 75.6H65.7998V117H55.3598V94.68L47.3198 111.9H38.9198L30.8798 94.68V117H20.4398ZM72.2663 117V108.96L90.5663 85.02H72.8663V75.6H103.826V83.64L85.5263 107.58H104.426V117H72.2663ZM110.905 117V75.6H130.705C137.745 75.6 141.265 79.12 141.265 86.16V89.46C141.265 90.82 140.865 91.98 140.065 92.94L137.965 95.46L140.485 97.56C141.805 98.64 142.465 100.24 142.465 102.36V106.44C142.465 113.48 138.945 117 131.905 117H110.905ZM121.345 107.58H131.365C131.805 107.58 132.025 107.36 132.025 106.92V101.28C132.025 100.84 131.805 100.62 131.365 100.62H121.345V107.58ZM121.345 91.2H130.165C130.605 91.2 130.825 90.98 130.825 90.54V85.68C130.825 85.24 130.605 85.02 130.165 85.02H121.345V91.2ZM149.78 117V75.6H170.18C177.22 75.6 180.74 79.12 180.74 86.16V93.12C180.74 98 179.06 101.2 175.7 102.72L181.94 114.9L180.74 117H171.74L164.9 103.62H160.22V117H149.78ZM160.22 94.2H169.64C170.08 94.2 170.3 93.98 170.3 93.54V85.68C170.3 85.24 170.08 85.02 169.64 85.02H160.22V94.2Z" fill="#F8F8F8"/>
</svg>
